<svg width="32" height="34" fill="none" xmlns="http://www.w3.org/2000/svg"><g clip-path="url(#clip0_1_32)" fill-rule="evenodd" clip-rule="evenodd" fill="#090909"><path d="M6.393 9.116l.043-.001h19.171a3.336 3.336 0 013.19 3.08L31.821 30.1l.005.029a3.387 3.387 0 01-3.23 3.856H3.404l-.056-.001A3.387 3.387 0 01.179 30.1l3.024-17.905a3.336 3.336 0 013.19-3.08zm.069 2.122a1.214 1.214 0 00-1.144 1.142 1.064 1.064 0 01-.013.116l-3.03 17.942a1.263 1.263 0 001.162 1.424h25.126a1.265 1.265 0 001.162-1.424l-3.03-17.942a1.08 1.08 0 01-.013-.116 1.213 1.213 0 00-1.143-1.142H6.462zM16.003.016a6.768 6.768 0 016.628 5.498 1.062 1.062 0 01-2.085.398A4.645 4.645 0 0016 2.14a4.646 4.646 0 00-4.542 3.75 1.062 1.062 0 01-2.083-.41A6.77 6.77 0 0115.997.016L16 1.077l.003-1.061z"/></g><defs><clipPath id="clip0_1_32"><path fill="#fff" d="M0 0h32v34H0z"/></clipPath></defs></svg>