<svg width="1220" height="436" fill="none" xmlns="http://www.w3.org/2000/svg"><g clip-path="url(#clip0_1_297)"><path d="M0 40C0 17.909 17.909 0 40 0h1140c22.09 0 40 17.909 40 40v356c0 22.091-17.91 40-40 40H40c-22.091 0-40-17.909-40-40V40z" fill="#FF9C08"/><g clip-path="url(#clip1_1_297)"><path opacity=".1" fill-rule="evenodd" clip-rule="evenodd" d="M70.643-279.871c104.758-3.804 188.985 76.961 252.036 160.711 60.44 80.28 99.481 178.166 76.789 276.059-22.609 97.532-96.981 176.278-190.141 212.939-85.698 33.725-175.852 1.329-260.162-35.732-89.801-39.474-194.752-79.48-218.476-174.667-24.024-96.392 49.076-182.525 109.872-261.089 62.464-80.72 128.086-174.516 230.082-178.221z" fill="#fff"/></g><g clip-path="url(#clip2_1_297)"><path opacity=".1" fill-rule="evenodd" clip-rule="evenodd" d="M1122.64 52.13c104.76-3.805 188.99 76.96 252.04 160.71 60.44 80.28 99.48 178.166 76.79 276.059-22.61 97.532-96.98 176.278-190.14 212.939-85.7 33.725-175.86 1.329-260.17-35.732-89.796-39.474-194.747-79.48-218.471-174.667-24.024-96.392 49.076-182.525 109.872-261.089 62.464-80.72 128.089-174.516 230.079-178.22z" fill="#fff"/></g></g><defs><clipPath id="clip0_1_297"><path fill="#fff" d="M0 0h1220v436H0z"/></clipPath><clipPath id="clip1_1_297"><path fill="#fff" transform="translate(-274 -280)" d="M0 0h680v664H0z"/></clipPath><clipPath id="clip2_1_297"><path fill="#fff" transform="translate(778 52)" d="M0 0h680v664H0z"/></clipPath></defs></svg>