<svg width="172" height="172" fill="none" xmlns="http://www.w3.org/2000/svg"><g clip-path="url(#clip0_1_230)"><path d="M86 172c47.496 0 86-38.504 86-86S133.496 0 86 0 0 38.504 0 86s38.504 86 86 86z" fill="#FFF3E0"/><mask id="mask0_1_230" style="mask-type:alpha" maskUnits="userSpaceOnUse" x="0" y="0" width="172" height="172"><path d="M86 172c47.496 0 86-38.504 86-86S133.496 0 86 0 0 38.504 0 86s38.504 86 86 86z" fill="#F0ECE8"/></mask><g mask="url(#mask0_1_230)"><path d="M105.368 53.676h-.033a27.065 27.065 0 00-4.214.348c-.988.163-1.958.382-2.907.653 10.744 3.085 18.671 12.625 18.671 24.116 0 7.841-3.8 10.904-9.557 19.36l-21.319 27.444 35.777-27.445c5.758-4.656 9.556-11.518 9.556-19.36 0-13.967-11.762-25.116-25.974-25.116z" fill="#FF9C08"/><path d="M86.047 58.678c-4.965-4.684-11.844-7.502-19.397-7.502-15.767 0-28.474 12.321-28.474 27.617 0 8.801 4.332 16.748 11.161 21.843l35.151 26.945 1.522 1.166 1.52-1.167 35.777-27.444.005-.003c6.47-4.988 10.53-12.692 10.53-21.34 0-15.441-12.974-27.617-28.474-27.617a28.688 28.688 0 00-19.321 7.502z" fill="#FF9C08" stroke="#090909" stroke-width="5"/><path d="M66.65 61.15c-10.046 0-18.133 7.963-18.133 17.641 0 2.083 1.593 3.676 3.676 3.676s3.675-1.593 3.675-3.676c0-5.636 4.901-10.29 10.782-10.29 2.083 0 3.676-1.593 3.676-3.676s-1.593-3.676-3.676-3.676z" fill="#fff"/></g></g><defs><clipPath id="clip0_1_230"><path fill="#fff" d="M0 0h172v172H0z"/></clipPath></defs></svg>