<svg width="172" height="172" fill="none" xmlns="http://www.w3.org/2000/svg"><g clip-path="url(#clip0_1_285)"><path d="M86 172c47.496 0 86-38.504 86-86S133.496 0 86 0 0 38.504 0 86s38.504 86 86 86z" fill="#FFF3E0"/><mask id="mask0_1_285" style="mask-type:alpha" maskUnits="userSpaceOnUse" x="0" y="0" width="172" height="172"><path d="M86 172c47.496 0 86-38.504 86-86S133.496 0 86 0 0 38.504 0 86s38.504 86 86 86z" fill="#F0ECE8"/></mask><g mask="url(#mask0_1_285)"><path d="M124.964 128.835H46.448c-4.798 0-8.724-3.926-8.724-8.724V67.766c0-4.798 3.926-8.724 8.724-8.724h78.516c4.798 0 8.724 3.926 8.724 8.724v52.345c0 4.798-3.926 8.724-8.724 8.724z" fill="#FF9C08"/><path d="M124.964 131.452H46.448a11.319 11.319 0 01-11.341-11.342V67.766c0-6.28 5.06-11.34 11.34-11.34h78.517c6.281 0 11.341 5.06 11.341 11.34v52.344c0 6.282-5.06 11.342-11.341 11.342zM46.448 61.66a6.07 6.07 0 00-6.107 6.106v52.344a6.069 6.069 0 006.107 6.107h78.516a6.07 6.07 0 006.107-6.107V67.766a6.07 6.07 0 00-6.107-6.106H46.448z" fill="#090909"/><path d="M103.154 61.66c-1.483 0-2.617-1.134-2.617-2.618 0-7.677-6.282-13.958-13.959-13.958h-1.745c-4.449 0-8.462 2.006-11.166 5.583-.873 1.134-2.53 1.396-3.665.524-1.134-.873-1.395-2.53-.523-3.664 3.664-4.886 9.248-7.677 15.354-7.677h1.745c10.556 0 19.193 8.636 19.193 19.192 0 1.483-1.134 2.618-2.617 2.618z" fill="#090909"/><path d="M101.409 87.832h-9.596v-9.597c0-1.483-1.134-2.617-2.618-2.617h-6.979c-1.483 0-2.617 1.134-2.617 2.617v9.597h-9.596c-1.483 0-2.618 1.134-2.618 2.617v6.98c0 1.482 1.135 2.616 2.618 2.616h9.596v9.597c0 1.483 1.134 2.617 2.617 2.617h6.98c1.483 0 2.617-1.134 2.617-2.617v-9.597h9.596c1.483 0 2.617-1.134 2.617-2.617V90.45c0-1.483-1.134-2.617-2.617-2.617z" fill="#fff"/></g></g><defs><clipPath id="clip0_1_285"><path fill="#fff" d="M0 0h172v172H0z"/></clipPath></defs></svg>