<svg width="172" height="172" fill="none" xmlns="http://www.w3.org/2000/svg"><g clip-path="url(#clip0_1_242)"><path d="M86 172c47.496 0 86-38.504 86-86S133.496 0 86 0 0 38.504 0 86s38.504 86 86 86z" fill="#FFF3E0"/><mask id="mask0_1_242" style="mask-type:alpha" maskUnits="userSpaceOnUse" x="0" y="0" width="172" height="172"><path d="M86 172c47.496 0 86-38.504 86-86S133.496 0 86 0 0 38.504 0 86s38.504 86 86 86z" fill="#F0ECE8"/></mask><g mask="url(#mask0_1_242)"><path d="M123.983 71.447V58.539a18.178 18.178 0 00-18.222-18.222 18.179 18.179 0 00-18.222 18.222v12.908" fill="#F08200"/><path d="M79.187 105.613c14.677 0 26.574-11.897 26.574-26.574 0-14.677-11.897-26.574-26.574-26.574-14.677 0-26.574 11.897-26.574 26.574 0 14.677 11.897 26.574 26.574 26.574z" fill="#FF9C08"/><path d="M131.576 70.688H40.465l6.757 54.059c.456 3.796 3.72 6.682 7.517 6.682h62.487c3.796 0 7.061-2.886 7.517-6.682l6.833-54.06z" fill="#fff"/><path d="M63.242 118.521c-1.139 0-2.125-.835-2.277-1.974l-3.797-30.37c-.152-1.215.76-2.354 1.974-2.506 1.215-.152 2.354.76 2.506 1.974l3.796 30.371c.152 1.214-.759 2.353-1.974 2.505h-.228zm15.186 0c-1.291 0-2.278-.987-2.278-2.278v-30.37c0-1.291.987-2.278 2.278-2.278 1.29 0 2.278.987 2.278 2.278v30.37c0 1.291-.988 2.278-2.278 2.278zm15.185 0c-1.29 0-2.278-.987-2.278-2.278v-30.37c0-1.291.987-2.278 2.278-2.278 1.29 0 2.278.987 2.278 2.278v30.37c0 1.291-.987 2.278-2.278 2.278zm15.185 0h-.304c-1.214-.152-2.125-1.291-1.974-2.505l3.797-30.371c.152-1.215 1.29-2.126 2.505-1.974 1.215.152 2.126 1.29 1.974 2.505L111 116.547c-.076 1.139-1.063 1.974-2.202 1.974z" fill="#090909"/><path d="M59.446 59.298h-6.074a12.897 12.897 0 01-12.907-12.907v-6.074h6.074c7.137 0 12.907 5.77 12.907 12.907V59.3z" fill="#FF9C08"/><path d="M133.247 69.169c-.456-.456-1.063-.76-1.671-.76h-5.315v-9.87c0-11.313-9.187-20.5-20.5-20.5-5.011 0-9.87 1.822-13.59 5.163-.912.835-.988 2.278-.153 3.189.836.911 2.278.987 3.19.152a16.073 16.073 0 0110.553-3.948c6.91 0 12.832 4.48 15.034 10.63l-9.339 7.82c-.987.835-1.063 2.277-.304 3.189.456.531 1.063.835 1.746.835.532 0 1.063-.152 1.443-.532l7.289-6.15V68.41H56.56c4.101-8.351 12.453-13.666 21.868-13.666 1.29 0 2.278-.987 2.278-2.278 0-1.29-.987-2.278-2.278-2.278-6.15 0-11.92 1.898-16.704 5.315v-2.278c0-8.352-6.833-15.185-15.185-15.185h-6.074c-1.291 0-2.278.987-2.278 2.278v6.074c0 8.352 6.833 15.185 15.185 15.185h2.05c-1.518 2.05-2.885 4.328-3.872 6.834H40.465c-.684 0-1.291.303-1.67.759-.38.455-.684 1.139-.608 1.822l6.757 54.06c.608 4.935 4.86 8.655 9.795 8.655h62.487c4.935 0 9.187-3.72 9.795-8.655l6.757-54.06c.152-.683-.076-1.29-.531-1.822zM42.742 46.39v-3.796h3.797c5.846 0 10.63 4.783 10.63 10.63v3.796h-3.797c-5.846 0-10.63-4.784-10.63-10.63zm79.799 78.128c-.304 2.658-2.582 4.632-5.239 4.632H54.739c-2.658 0-4.935-1.974-5.24-4.632l-6.453-51.554h85.949l-6.454 51.554z" fill="#090909"/></g></g><defs><clipPath id="clip0_1_242"><path fill="#fff" d="M0 0h172v172H0z"/></clipPath></defs></svg>