<svg width="172" height="172" fill="none" xmlns="http://www.w3.org/2000/svg"><g clip-path="url(#clip0_1_215)"><path d="M86 172c47.496 0 86-38.504 86-86S133.496 0 86 0 0 38.504 0 86s38.504 86 86 86z" fill="#FFF3E0"/><mask id="mask0_1_215" style="mask-type:alpha" maskUnits="userSpaceOnUse" x="0" y="0" width="172" height="172"><path d="M86 172c47.496 0 86-38.504 86-86S133.496 0 86 0 0 38.504 0 86s38.504 86 86 86z" fill="#F0ECE8"/></mask><g mask="url(#mask0_1_215)"><path d="M123.269 82.14v53.647H48.741V82.14l37.264-38.656 37.264 38.656z" fill="#fff"/><path d="M60.627 135.788V93.812h20.666v41.976H60.627zM86.005 35.132L36.32 85.46l6.317 6.318 43.368-45.081 43.367 45.08 6.318-6.317-12.421-12.528V43.485h-12.422v16.811L86.005 35.132z" fill="#FF9C08"/><path d="M69.407 79.25c3.32-18.633 29.769-18.633 33.088 0H69.407z" fill="#FF9C08"/><path d="M123.269 139H48.741c-1.82 0-3.213-1.392-3.213-3.212v-42.94h-5.032a3.322 3.322 0 01-2.356-.963l-4.176-4.177c-1.285-1.284-1.285-3.212 0-4.497l49.685-50.328c1.178-1.178 3.32-1.178 4.604 0l19.275 19.596v-8.995c0-1.82 1.392-3.212 3.212-3.212h12.422c1.82 0 3.212 1.392 3.212 3.212V71.54l11.458 11.672c1.285 1.285 1.285 3.213 0 4.498l-4.177 4.176c-.642.642-1.392.963-2.248.963h-5.033v42.94c.107 1.82-1.392 3.212-3.105 3.212zm-71.316-6.425h67.996V89.636c0-.857.321-1.713.964-2.249.642-.642 1.499-.963 2.249-.963h6.96l.964-.964-10.173-10.28c-.643-.642-.964-1.392-.964-2.249V46.697h-5.996v13.599c0 1.285-.75 2.463-2.035 2.998-1.178.536-2.57.214-3.533-.75l-22.38-22.807L40.924 85.46l.964.964h6.96c.857 0 1.713.32 2.249.963.642.643.963 1.392.963 2.249v42.939h-.107z" fill="#090909"/><path d="M90.716 93.813h20.667V114.8H90.716V93.813z" fill="#FF9C08"/><path d="M70.906 100.13a4.177 4.177 0 100 8.354 4.177 4.177 0 000-8.354z" fill="#fff"/></g></g><defs><clipPath id="clip0_1_215"><path fill="#fff" d="M0 0h172v172H0z"/></clipPath></defs></svg>