<svg width="172" height="172" fill="none" xmlns="http://www.w3.org/2000/svg"><g clip-path="url(#clip0_1_260)"><path d="M86 172c47.496 0 86-38.504 86-86S133.496 0 86 0 0 38.504 0 86s38.504 86 86 86z" fill="#FFF3E0"/><mask id="mask0_1_260" style="mask-type:alpha" maskUnits="userSpaceOnUse" x="0" y="0" width="172" height="172"><path d="M86 172c47.496 0 86-38.504 86-86S133.496 0 86 0 0 38.504 0 86s38.504 86 86 86z" fill="#F0ECE8"/></mask><g mask="url(#mask0_1_260)"><path d="M107.59 66.318a21.556 21.556 0 002.54-10.158c0-11.957-9.629-21.586-21.375-21.586-11.745 0-21.374 9.629-21.374 21.586 0 .53 0 .952.105 1.481-11.005 3.704-18.835 14.18-18.835 26.56 0 15.45 12.486 28.041 27.83 28.041h23.067c13.016 0 23.491-10.581 23.491-23.703-.105-10.158-6.454-18.835-15.449-22.22z" fill="#FF9C08"/><path d="M85.792 61.662c-1.799 0-3.174 1.376-3.174 3.175v14.39L70.132 72.88c-.424-.212-.953-.318-1.482-.318a3.05 3.05 0 00-2.751 1.693c-.74 1.587-.212 3.492 1.376 4.233l15.237 7.936v17.036c0 1.799 1.376 3.175 3.174 3.175 1.8 0 3.175-1.376 3.175-3.175v-1.904l15.343-7.725c1.587-.846 2.222-2.751 1.482-4.338-.529-1.059-1.588-1.8-2.752-1.8-.529 0-.952.107-1.481.424l-12.486 6.349V64.837c0-1.8-1.376-3.175-3.175-3.175z" fill="#fff"/><path d="M99.337 115.522H76.269c-17.036 0-31.004-13.967-31.004-31.215 0-12.592 7.513-23.809 18.835-28.676.423-13.439 11.217-24.126 24.55-24.126 13.544 0 24.549 11.11 24.549 24.76 0 2.858-.53 5.82-1.482 8.466 8.677 4.55 14.285 13.756 14.285 23.808.106 14.921-11.851 26.983-26.665 26.983zM88.649 37.854c-10.052 0-18.2 8.253-18.2 18.412v1.27c.106 1.48-.74 2.75-2.116 3.174-10.053 3.386-16.72 12.91-16.72 23.491 0 13.756 11.006 24.867 24.656 24.867h23.068c11.216 0 20.316-9.206 20.316-20.529 0-8.57-5.29-16.295-13.227-19.258-.846-.317-1.481-.952-1.904-1.799-.318-.846-.318-1.799.211-2.645a18.77 18.77 0 002.117-8.677c0-10.053-8.148-18.306-18.2-18.306zm-2.963 102.641c-1.798 0-3.174-1.376-3.174-3.175v-16.401c0-1.799 1.376-3.174 3.174-3.174 1.8 0 3.175 1.375 3.175 3.174v16.401c0 1.799-1.376 3.175-3.175 3.175z" fill="#090909"/></g></g><defs><clipPath id="clip0_1_260"><path fill="#fff" d="M0 0h172v172H0z"/></clipPath></defs></svg>