<svg width="172" height="172" fill="none" xmlns="http://www.w3.org/2000/svg"><g clip-path="url(#clip0_1_272)"><path d="M86 172c47.496 0 86-38.504 86-86S133.496 0 86 0 0 38.504 0 86s38.504 86 86 86z" fill="#FFF3E0"/><mask id="mask0_1_272" style="mask-type:alpha" maskUnits="userSpaceOnUse" x="0" y="0" width="172" height="172"><path d="M172 86c0 47.496-38.504 86-86 86S0 133.496 0 86 38.504 0 86 0s86 38.504 86 86z" fill="#F0ECE8"/></mask><g mask="url(#mask0_1_272)"><path d="M90.448 92.798c-2.753 1.032-5.85 1.032-8.688 0L38.583 76.112c-2.924-1.119-2.924-5.333 0-6.451l43.264-16.6c2.752-1.032 5.848-1.032 8.687 0l43.263 16.6c1.548.602 2.408 1.978 2.322 3.354v1.806L90.448 92.798z" fill="#FF9C08"/><path d="M134.657 67.338L91.394 50.652a14.708 14.708 0 00-10.494 0L37.637 67.338a5.96 5.96 0 00-3.87 5.59 5.96 5.96 0 003.87 5.592l11.526 4.472v20.041c0 17.546 19.782 19.782 36.984 19.782s36.985-2.236 36.985-19.782V86.261c0-1.979-.947-3.87-2.581-4.989a6.138 6.138 0 00-5.59-.688l-25.46 9.805a9.27 9.27 0 01-6.794 0L39.529 73.703c-.43-.172-.516-.516-.516-.774s.086-.602.516-.774l43.264-16.6a9.27 9.27 0 016.794 0l43.264 16.6c.516.172.688.602.688.86V85.83c0 1.462 1.118 2.58 2.58 2.58s2.581-1.118 2.581-2.58V73.186a6.212 6.212 0 00-4.043-5.849zm1.376 38.275c-1.462 0-2.58-1.118-2.58-2.58v-4.3c0-1.463 1.118-2.581 2.58-2.581s2.58 1.118 2.58 2.58v4.301c0 1.462-1.118 2.58-2.58 2.58z" fill="#090909"/><path d="M50.46 81.253l-3.33-1.322-.092 3.581-.511 19.871v.015l-.001.016c-.12 9.003 3.09 14.199 5.746 16.04 2.824 2.986 7.506 5.128 12.846 6.508 5.582 1.442 12.248 2.145 19.167 1.952h.025c10.08-.38 16.256-1.631 20.458-3.107 3.006-1.055 5.157-2.331 6.623-3.201.511-.303.938-.557 1.29-.735l.254-.129.219-.182c3.651-3.045 5.589-5.634 6.594-8.147.793-1.984.943-3.866 1.057-5.309.026-.319.049-.616.078-.888l.014-.133-.001-.134c-.007-2.721-.093-8.133-.167-12.81l-.061-3.913c-.058-3.846-3.961-6.52-7.574-5.137l-27.34 10.463a2.5 2.5 0 01-1.816-.01L50.46 81.251z" fill="#fff" stroke="#090909" stroke-width="5"/></g></g><defs><clipPath id="clip0_1_272"><path fill="#fff" d="M0 0h172v172H0z"/></clipPath></defs></svg>