<svg width="388" height="364" fill="none" xmlns="http://www.w3.org/2000/svg"><g clip-path="url(#clip0_1_425)"><path d="M0 14C0 6.268 6.268 0 14 0h360c7.732 0 14 6.268 14 14v336c0 7.732-6.268 14-14 14H14c-7.732 0-14-6.268-14-14V14z" fill="#FF9C08"/><g clip-path="url(#clip1_1_425)"><path opacity=".2" fill-rule="evenodd" clip-rule="evenodd" d="M378.649 160.074c59.774-2.172 107.833 43.928 143.809 91.731 34.486 45.823 56.763 101.694 43.815 157.569-12.9 55.67-55.336 100.617-108.492 121.543-48.898 19.249-100.339.758-148.446-20.395-51.239-22.532-111.123-45.367-124.659-99.697-13.708-55.02 28.002-104.183 62.691-149.026 35.641-46.074 73.084-99.611 131.282-101.725z" fill="#fff"/></g><g clip-path="url(#clip2_1_425)"><path opacity=".18" fill-rule="evenodd" clip-rule="evenodd" d="M68.649-207.926c59.774-2.172 107.833 43.928 143.809 91.731 34.486 45.822 56.763 101.693 43.815 157.57-12.9 55.67-55.336 100.616-108.492 121.542-48.898 19.249-100.34.758-148.445-20.395-51.24-22.532-111.124-45.367-124.66-99.697-13.708-55.02 28.002-104.183 62.691-149.026 35.642-46.074 73.084-99.611 131.282-101.725z" fill="#fff"/></g></g><defs><clipPath id="clip0_1_425"><path fill="#fff" d="M0 0h388v364H0z"/></clipPath><clipPath id="clip1_1_425"><path fill="#fff" transform="translate(182 160)" d="M0 0h388v379H0z"/></clipPath><clipPath id="clip2_1_425"><path fill="#fff" transform="translate(-128 -208)" d="M0 0h388v379H0z"/></clipPath></defs></svg>