<svg width="200" height="32" fill="none" xmlns="http://www.w3.org/2000/svg"><g clip-path="url(#clip0_1_9)"><path d="M34.456 6.333c-1.574-3.48-4.832-5.843-8.467-6.2-2.947-.268-5.85.49-8.178 2.163-.022.022-.044.045-.066.045-.022-.023-.044-.045-.066-.045C15.329.623 12.426-.134 9.5.156 5.844.49 2.608 2.853 1.012 6.332c-1.706 3.724-1.24 8.006 1.286 12.043 3.679 5.888 9.973 10.08 14.605 12.556l.731.357v.022h.045l.886-.356c4.632-2.476 10.948-6.669 14.605-12.557 2.527-4.059 2.992-8.34 1.285-12.065zm-4.3 9.924c-3.036 4.885-8.31 8.52-12.455 10.84v-.068c-4.145-2.297-9.353-5.932-12.367-10.772-1.795-2.877-2.15-5.798-1.042-8.251 1.02-2.23 3.192-3.814 5.519-4.037 1.928-.179 3.745.245 5.252 1.115a11.276 11.276 0 00-1.817 4.237c-.598 2.833-.133 5.598 1.197 7.36.864 1.137 2.039 1.762 3.28 1.784h.044c1.241 0 2.416-.646 3.28-1.784 1.352-1.762 1.795-4.527 1.197-7.36a11.459 11.459 0 00-1.108-3.055 7.678 7.678 0 00-2.793 2.676c.156.38.266.803.355 1.227.421 2.03 0 3.501-.488 4.126-.066.111-.265.334-.465.334s-.377-.245-.465-.334c-.488-.647-.909-2.119-.488-4.126.82-3.992 4.566-6.58 8.865-6.178 2.35.223 4.521 1.807 5.518 4.037 1.13 2.43.754 5.352-1.019 8.23z" fill="#FF9C08"/><path d="M43.828 21.254V5.455h5.809c1.256 0 2.295.21 3.118.632.822.421 1.435 1 1.839 1.738.403.737.605 1.565.605 2.483a5.1 5.1 0 01-.583 2.415c-.389.722-.994 1.309-1.817 1.76-.822.436-1.876.655-3.162.655h-2.938v6.116h-2.871zm2.87-8.464h2.76c1.001 0 1.72-.218 2.153-.654.448-.451.673-1.061.673-1.828 0-.783-.225-1.392-.673-1.829-.434-.45-1.152-.677-2.153-.677h-2.76v4.988zm10.686 8.464V5.004h2.871v6.77a3.969 3.969 0 011.503-1.444c.643-.36 1.375-.541 2.198-.541 1.376 0 2.437.436 3.185 1.309.762.872 1.143 2.151 1.143 3.837v6.32h-2.848v-6.05c0-.963-.194-1.7-.583-2.212-.374-.511-.972-.767-1.794-.767-.808 0-1.48.286-2.019.858-.523.572-.785 1.37-.785 2.392v5.778h-2.87zM72.577 8.322c-.523 0-.957-.158-1.3-.474-.33-.316-.494-.715-.494-1.197 0-.481.165-.872.493-1.173.344-.316.778-.474 1.301-.474.524 0 .95.158 1.279.474.344.3.516.692.516 1.173 0 .482-.172.88-.516 1.197-.33.316-.755.474-1.279.474zm-1.435 12.932V10.06h2.87v11.195h-2.87zm5.868 0V5.004h2.87v16.25h-2.87zm9.638.271c-.956 0-1.74-.15-2.354-.451-.613-.316-1.07-.73-1.368-1.242a3.293 3.293 0 01-.449-1.692c0-1.039.404-1.881 1.21-2.528.808-.647 2.02-.97 3.634-.97h2.826v-.272c0-.767-.217-1.331-.65-1.692-.433-.362-.972-.542-1.615-.542-.582 0-1.091.143-1.525.429-.433.27-.703.677-.807 1.219h-2.804c.075-.813.344-1.52.808-2.122a4.581 4.581 0 011.838-1.377c.749-.33 1.585-.496 2.513-.496 1.585 0 2.833.398 3.745 1.196.912.797 1.368 1.926 1.368 3.385v6.884h-2.444l-.27-1.805a4.128 4.128 0 01-1.39 1.49c-.584.39-1.338.586-2.266.586zm.652-2.257c.821 0 1.457-.27 1.906-.813.463-.541.755-1.21.874-2.008h-2.444c-.763 0-1.309.143-1.638.429-.329.27-.493.609-.493 1.015 0 .437.165.775.493 1.016.33.24.763.361 1.302.361zm8.458 1.986V10.06h2.534l.224 1.896a3.95 3.95 0 011.48-1.58c.659-.39 1.429-.586 2.311-.586 1.376 0 2.444.436 3.208 1.309.762.872 1.144 2.151 1.144 3.837v6.32h-2.872v-6.05c0-.963-.194-1.7-.583-2.212-.388-.511-.994-.767-1.817-.767-.807 0-1.472.286-1.995.858-.51.572-.763 1.37-.763 2.392v5.778h-2.87zm18.602 0c-1.166 0-2.101-.286-2.804-.858-.702-.571-1.054-1.587-1.054-3.046v-4.876h-1.906V10.06h1.906l.336-3.001h2.535v3.001h3.006v2.415h-3.006v4.898c0 .542.112.918.337 1.129.239.195.642.293 1.211.293h1.39v2.46h-1.951zm4.484 0V5.004h2.871v6.77a3.96 3.96 0 011.502-1.444c.643-.36 1.375-.541 2.198-.541 1.376 0 2.438.436 3.185 1.309.762.872 1.144 2.151 1.144 3.837v6.32h-2.849v-6.05c0-.963-.194-1.7-.583-2.212-.374-.511-.971-.767-1.794-.767-.808 0-1.48.286-2.018.858-.524.572-.785 1.37-.785 2.392v5.778h-2.871zm13.645 0V10.06h2.557l.269 2.1a4.613 4.613 0 011.637-1.716c.703-.436 1.526-.654 2.467-.654v3.046h-.807c-.628 0-1.189.098-1.682.294a2.325 2.325 0 00-1.166 1.016c-.269.481-.404 1.15-.404 2.008v5.101h-2.871zm14.033.271c-1.076 0-2.048-.248-2.915-.745a5.583 5.583 0 01-2.041-2.054c-.494-.887-.74-1.91-.74-3.07 0-1.158.253-2.174.762-3.046a5.535 5.535 0 012.041-2.077c.867-.496 1.84-.744 2.916-.744 1.062 0 2.018.248 2.871.744a5.331 5.331 0 012.041 2.077c.508.873.762 1.888.762 3.047 0 1.158-.254 2.182-.762 3.07a5.374 5.374 0 01-2.041 2.053c-.868.497-1.832.745-2.894.745zm0-2.505c.748 0 1.398-.279 1.952-.835.553-.572.83-1.415.83-2.528 0-1.114-.277-1.949-.83-2.505-.554-.572-1.196-.858-1.929-.858-.763 0-1.42.286-1.973.857-.539.557-.808 1.392-.808 2.506 0 1.113.269 1.956.808 2.528.553.556 1.203.835 1.95.835zm8.264 7.2V10.06h2.557l.314 1.602a5.19 5.19 0 011.413-1.31c.598-.375 1.368-.563 2.31-.563 1.047 0 1.982.255 2.803.767a5.484 5.484 0 011.952 2.099c.478.888.718 1.896.718 3.024 0 1.129-.24 2.137-.718 3.025a5.53 5.53 0 01-1.952 2.076c-.821.497-1.756.745-2.803.745-.837 0-1.57-.158-2.198-.474a3.97 3.97 0 01-1.525-1.332v6.5h-2.871zm5.989-7.223c.911 0 1.667-.308 2.265-.925.598-.617.897-1.415.897-2.393 0-.978-.299-1.783-.897-2.415-.598-.632-1.354-.947-2.265-.947-.927 0-1.69.315-2.288.947-.583.617-.875 1.415-.875 2.393 0 .978.292 1.783.875 2.415.598.617 1.361.925 2.288.925zm9.025 7.223l2.579-5.71h-.673l-4.328-10.45h3.117l3.118 7.876 3.252-7.877h3.05l-7.065 16.16h-3.05zm16.641-4.966l4.912-7.99-4.979-7.809h3.297l3.521 5.507 3.23-5.507h3.23L194.74 13.4l5.024 7.854h-3.297L192.9 15.68l-3.229 5.575h-3.23z" fill="#090909"/></g><defs><clipPath id="clip0_1_9"><path fill="#fff" d="M0 0h200v32H0z"/></clipPath></defs></svg>