<svg width="76" height="76" fill="none" xmlns="http://www.w3.org/2000/svg"><g clip-path="url(#clip0_1_158)"><path d="M38 76c20.987 0 38-17.013 38-38S58.987 0 38 0 0 17.013 0 38s17.013 38 38 38z" fill="#FFF3E0"/><path d="M55.842 34.199v12.182c0 1.43-.65 2.817-1.734 3.728-9.06 7.283-22.37 7.5-31.213.043-1.084-.954-1.734-2.34-1.734-3.771V34.112" fill="#fff"/><path d="M14.658 31.208l24.277 10.837 23.41-10.837-23.41-10.838-24.277 10.838z" fill="#FF9C08"/><path d="M38.284 56.915c-5.852 0-11.66-1.907-16.213-5.766-1.387-1.17-2.167-2.904-2.167-4.768V34.112c0-.736.563-1.3 1.3-1.3.737 0 1.3.564 1.3 1.3v12.269a3.71 3.71 0 001.258 2.774c8.193 6.936 20.895 6.893 29.565-.043.824-.65 1.257-1.647 1.257-2.731V34.199c0-.737.564-1.3 1.3-1.3.738 0 1.301.563 1.301 1.3v12.182c0 1.864-.823 3.598-2.254 4.725-4.855 3.902-10.794 5.809-16.647 5.809z" fill="#090909"/><path d="M38.935 43.346c-.174 0-.347-.043-.52-.13L14.138 32.378c-.477-.173-.78-.65-.78-1.17 0-.52.303-.997.78-1.17L38.415 19.2c.346-.174.736-.13 1.083 0l23.41 10.837c.477.217.737.694.737 1.17 0 .478-.304.954-.737 1.171l-23.41 10.838c-.173.087-.39.13-.563.13zM17.866 31.208l21.069 9.407 20.331-9.407L38.935 21.8l-21.069 9.407zm44.478 13.829c-.737 0-1.3-.564-1.3-1.3v-8.194c0-.737.563-1.3 1.3-1.3.737 0 1.3.563 1.3 1.3v8.193c0 .694-.563 1.3-1.3 1.3z" fill="#090909"/></g><defs><clipPath id="clip0_1_158"><path fill="#fff" d="M0 0h76v76H0z"/></clipPath></defs></svg>