<svg width="76" height="76" fill="none" xmlns="http://www.w3.org/2000/svg"><g clip-path="url(#clip0_1_126)"><path d="M38 76c20.987 0 38-17.013 38-38S58.987 0 38 0 0 17.013 0 38s17.013 38 38 38z" fill="#FFF3E0"/><path d="M40.445 38.262a2.732 2.732 0 01-3.892 0l-9.7-9.84a6.56 6.56 0 01-1.291-7.72 7 7 0 0111.037-1.738l1.9 1.847 1.903-1.847a7 7 0 0111.037 1.738 6.56 6.56 0 01-1.292 7.728l-9.702 9.832z" fill="#FF9C08" stroke="#090909" stroke-width="3" stroke-linecap="round" stroke-linejoin="round"/><path d="M19.186 49.93l13.071-.266.31 9.491s-2.182-.98-4.488-.98c-2.306 0-4.849 1.29-4.849 1.29l-4.044-9.535z" fill="#fff"/><path d="M23.466 58l-3.67-4.339A8.2 8.2 0 0118 48.54v-9.424a2.734 2.734 0 015.466 0v6.833" fill="#fff"/><path d="M23.466 58l-3.67-4.339A8.2 8.2 0 0118 48.54v-9.424a2.734 2.734 0 015.466 0v6.833" stroke="#090909" stroke-width="3" stroke-linecap="round" stroke-linejoin="round"/><path d="M31.666 58v-5.467a8.2 8.2 0 00-1.38-4.555l-2.08-3.116a2.55 2.55 0 00-4.466 2.453l2.463 4.1" fill="#fff"/><path d="M31.666 58v-5.467a8.2 8.2 0 00-1.38-4.555l-2.08-3.116a2.55 2.55 0 00-4.466 2.453l2.463 4.1" stroke="#090909" stroke-width="3" stroke-linecap="round" stroke-linejoin="round"/><path d="M53.532 58l3.67-4.339A8.2 8.2 0 0059 48.54v-9.424a2.733 2.733 0 10-5.467 0v6.833" fill="#fff"/><path d="M53.532 58l3.67-4.339A8.2 8.2 0 0059 48.54v-9.424a2.733 2.733 0 10-5.467 0v6.833" stroke="#090909" stroke-width="3" stroke-linecap="round" stroke-linejoin="round"/><path d="M45.333 58v-5.467a8.2 8.2 0 011.379-4.555l2.08-3.12a2.552 2.552 0 014.654.657 2.55 2.55 0 01-.183 1.796l-2.464 4.1" fill="#fff"/><path d="M45.333 58v-5.467a8.2 8.2 0 011.379-4.555l2.08-3.12a2.552 2.552 0 014.654.657 2.55 2.55 0 01-.183 1.796l-2.464 4.1" stroke="#090909" stroke-width="3" stroke-linecap="round" stroke-linejoin="round"/></g><defs><clipPath id="clip0_1_126"><path fill="#fff" d="M0 0h76v76H0z"/></clipPath></defs></svg>