<svg width="76" height="76" fill="none" xmlns="http://www.w3.org/2000/svg"><g clip-path="url(#clip0_1_142)"><path d="M38 76c20.987 0 38-17.013 38-38S58.987 0 38 0 0 17.013 0 38s17.013 38 38 38z" fill="#FFF3E0"/><path d="M53.2 56.114c10.005-8.395 11.31-23.31 2.914-33.315-8.395-10.004-23.31-11.308-33.315-2.913-10.004 8.395-11.308 23.31-2.913 33.315 8.395 10.004 23.31 11.308 33.315 2.913z" fill="#fff"/><path d="M41.456 14.672c-4.775 3.547-8.55 8.731-10.414 15.098 7.549-6.321 16.644-8.913 24.056-7.503l-.09-.091a18.85 18.85 0 00-13.552-7.504z" fill="#FF9C08"/><path d="M20.81 44.913c1.546-5.73 5.048-11.142 10.277-15.189-3.137 9.277-1.318 25.102 2.683 31.514a28.71 28.71 0 01-14.324-8.23l-.455-.455 1.819-7.64zm2.001-25.011c-4.866 3.501-7.913 8.958-8.23 14.916l16.143-5.412-7.913-9.504z" fill="#FF9C08"/><path d="M61.283 38.137c-7.504-5.457-20.01-9.55-30.241-8.413l-.318-.318L53.188 56.1l1.32-1.319a22.645 22.645 0 006.775-16.644z" fill="#FF9C08"/><path d="M31.497 55.327c-.591 0-1.137-.41-1.32-1-2.364-8.504-2.5-17.872-.408-24.966a30.306 30.306 0 014.956-9.914c.455-.591 1.32-.727 1.91-.273.592.455.728 1.319.273 1.91-2.046 2.683-3.547 5.73-4.502 9.004-1.955 6.64-1.773 15.416.455 23.465a1.397 1.397 0 01-.955 1.683c-.182.09-.273.09-.41.09z" fill="#090909"/><path d="M57.145 21.903C48.277 11.353 32.497 9.988 21.9 18.856c-5.093 4.274-8.23 10.323-8.822 16.962-.59 6.64 1.455 13.142 5.776 18.235a24.556 24.556 0 0016.962 8.823c.727.045 1.5.09 2.228.09 5.866 0 11.505-2.046 16.053-5.866a24.556 24.556 0 008.822-16.962c.546-6.64-1.455-13.097-5.775-18.235zm3.001 13.824c-7.094-4.502-16.462-7.321-24.693-7.503 6.23-4.048 13.233-5.73 19.418-4.593h.136c0 .045.046.045.046.09a21.454 21.454 0 015.093 12.006zm-6.821 18.417L41.819 40.411a1.37 1.37 0 00-1.91-.182 1.37 1.37 0 00-.181 1.91l11.505 13.733c-4.366 3.23-9.732 4.775-15.189 4.275-5.912-.5-11.323-3.32-15.143-7.867 0-.046-.046-.046-.046-.091v-.182c0-3.547.956-7.367 2.774-11.005a1.31 1.31 0 00-.59-1.819c-.683-.318-1.501-.09-1.82.591-1.455 2.91-2.41 5.867-2.82 8.822a21.792 21.792 0 01-2.591-12.55c.5-5.912 3.32-11.324 7.867-15.144 4.184-3.456 9.231-5.184 14.325-5.184 4.956 0 9.822 1.637 13.87 4.82-7.185-.227-14.916 2.592-21.374 7.913-4.047.5-7.822 1.728-11.278 3.683-.636.364-.91 1.183-.5 1.865.364.637 1.183.91 1.865.5 3.274-1.819 6.866-3.001 10.686-3.41 10.187-1.137 22.238 3.137 29.013 7.958-.318 5.593-2.637 11.05-6.957 15.097z" fill="#090909"/><path d="M27.813 27.269a1.36 1.36 0 01-1.046-.5l-2.091-2.547c-.455-.591-.41-1.456.181-1.91.592-.455 1.456-.41 1.91.182l2.092 2.546c.455.591.41 1.456-.182 1.91a1.276 1.276 0 01-.864.319z" fill="#090909"/><path d="M33.647 32.893a4.548 4.548 0 10-5.847-6.967 4.548 4.548 0 005.847 6.967z" fill="#fff"/><path d="M30.724 35.318c-.182 0-.364 0-.546-.046-1.592-.136-3.001-.864-4.002-2.092-1-1.228-1.5-2.728-1.364-4.32.136-1.591.864-3.001 2.092-4.002 1.228-1 2.728-1.5 4.32-1.364 1.591.137 3.001.864 4.002 2.092 2.092 2.501 1.773 6.23-.728 8.322a5.71 5.71 0 01-3.774 1.41zm0-9.095c-.728 0-1.456.272-2.047.727a3.318 3.318 0 00-1.137 2.183 3.042 3.042 0 00.728 2.32c1.137 1.363 3.138 1.5 4.502.409 1.364-1.137 1.5-3.138.41-4.503a3.318 3.318 0 00-2.183-1.137h-.273z" fill="#090909"/></g><defs><clipPath id="clip0_1_142"><path fill="#fff" d="M0 0h76v76H0z"/></clipPath></defs></svg>