<svg width="76" height="76" fill="none" xmlns="http://www.w3.org/2000/svg"><g clip-path="url(#clip0_1_116)"><path d="M38 76c20.987 0 38-17.013 38-38S58.987 0 38 0 0 17.013 0 38s17.013 38 38 38z" fill="#FFF3E0"/><path d="M45.295 22.326h-.014a11.181 11.181 0 00-3.051.429c4.603 1.322 8 5.41 8 10.334 0 3.36-1.628 4.672-4.095 8.295L37 53.144l15.33-11.76c2.468-1.995 4.095-4.935 4.095-8.295 0-5.985-5.04-10.763-11.13-10.763z" fill="#FF9C08"/><path d="M28.705 22.326c3.36 0 6.352 1.417 8.295 3.675a11.223 11.223 0 018.295-3.675c6.09 0 11.13 4.777 11.13 10.763 0 3.36-1.575 6.352-4.095 8.295L37 53.144l-15.067-11.55c-2.678-1.995-4.358-5.093-4.358-8.505 0-5.933 4.935-10.763 11.13-10.763z" fill="#FF9C08"/><path d="M28.705 25.528c-4.305 0-7.77 3.413-7.77 7.56 0 .892.682 1.575 1.575 1.575.892 0 1.575-.683 1.575-1.575 0-2.415 2.1-4.41 4.62-4.41.892 0 1.575-.682 1.575-1.575 0-.892-.683-1.575-1.575-1.575z" fill="#fff"/><path d="M37 54.718c-.315 0-.682-.105-.945-.315l-15.067-11.55C17.838 40.543 16 36.973 16 33.09c0-6.825 5.723-12.338 12.705-12.338 3.098 0 6.09 1.102 8.295 3.045a12.921 12.921 0 018.295-3.045C52.278 20.751 58 26.263 58 33.089c0 3.675-1.68 7.192-4.672 9.555l-15.383 11.76c-.263.21-.63.314-.945.314zm-8.295-30.817c-5.25 0-9.555 4.148-9.555 9.188 0 2.887 1.365 5.512 3.728 7.245L37 51.2l14.385-11.025c2.205-1.733 3.465-4.305 3.465-7.035 0-5.092-4.305-9.188-9.555-9.188a9.699 9.699 0 00-7.14 3.15c-.315.316-.735.525-1.155.525-.472 0-.892-.21-1.155-.524-1.785-2.048-4.357-3.203-7.14-3.203z" fill="#090909"/></g><defs><clipPath id="clip0_1_116"><path fill="#fff" d="M0 0h76v76H0z"/></clipPath></defs></svg>